<svg width="107" height="71" viewBox="0 0 107 71" fill="none" xmlns="http://www.w3.org/2000/svg">
<path d="M74.8759 42.3166C72.3759 41.9095 69.903 43.2565 68.8582 45.5921C68.6557 46.0452 68.5179 46.5147 68.4387 46.9892C71.0188 45.7161 73.2739 44.1813 75.2207 42.3727L74.8759 42.3166Z" fill="#124C5F"/>
<path d="M77.1953 19.6912C81.8826 16.6026 83.2102 10.2513 80.1605 5.50507C77.1108 0.758838 70.8388 -0.584974 66.1515 2.50358C61.4641 5.59213 60.1366 11.9435 63.1862 16.6897C66.2359 21.4359 72.508 22.7798 77.1953 19.6912Z" fill="#124C5F"/>
<path d="M95.7812 22.2798C91.4019 16.7886 85.4541 16.7256 82.1686 18.9655C78.8841 21.2041 79.124 26.8917 81.8671 30.7106C81.9917 30.9212 82.1241 31.1404 82.2537 31.3574C83.199 28.4529 83.3322 26.3448 83.3335 26.3156C83.4299 23.8514 85.4036 21.9279 87.828 21.9279C87.8843 21.9279 87.9405 21.9288 87.9968 21.9311C90.4769 22.0232 92.4206 24.1413 92.3292 26.6533V26.6611L92.3265 26.7017C92.2527 28.1083 91.7773 33.1647 88.7624 39.1737C88.4879 39.7253 88.1642 40.3297 87.7929 40.9697C88.4249 42.1922 89.0325 43.4411 89.5866 44.7096L85.7475 44.0852C83.1508 47.6077 79.1785 51.6039 73.2626 54.7349L90.4261 69.1214C91.4758 70.0016 92.7469 70.4305 94.0108 70.4305C95.629 70.4305 97.235 69.7267 98.3482 68.3661C100.329 65.9416 99.9952 62.3502 97.6014 60.3442L93.4743 56.8831L94.8093 57.101C95.223 57.168 95.6322 57.1844 96.0341 57.1607C97.0037 57.2077 98.1438 56.8645 99.546 56.3699C103.441 54.9952 107.857 52.5716 106.709 45.186C104.392 35.2646 101.757 29.8664 95.7812 22.2798Z" fill="#124C5F"/>
<path d="M87.9605 38.7599C91.2013 32.3009 91.4106 26.9551 91.43 26.6192C91.5029 24.6063 89.9522 22.9152 87.9645 22.8418C85.9799 22.7671 84.3122 24.3337 84.2344 26.342C84.2285 26.5741 83.9278 30.97 81.2978 35.9242C78.6398 40.8858 73.8614 46.4604 64.1879 49.7218C62.2991 50.3527 61.2729 52.4143 61.8972 54.3274C62.3964 55.8599 63.8043 56.8317 65.3163 56.8317C65.6903 56.8317 66.0707 56.7719 66.4452 56.647C78.2725 52.7275 84.7502 45.2097 87.9605 38.7599Z" fill="#124C5F"/>
<path d="M40.5335 56.1042C42.1701 56.4187 44.1398 56.9383 44.6606 57.4967C46.0628 58.9949 46.7478 62.0895 48.5659 62.3065C49.8361 62.4578 50.2822 62.43 51.8558 61.4017C53.4092 60.3843 51.9341 56.4232 51.5632 54.9013C51.0375 52.7416 52.2911 50.3695 52.3104 50.2246C52.3262 50.1042 53.406 47.811 56.5276 48.6816C57.6178 48.9879 56.9795 46.9472 55.2722 45.9276C53.2422 44.7169 51.7734 45.2812 50.2894 46.46C47.4239 44.2392 42.9349 44.6727 40.3827 45.64C39.9749 47.3233 39.8169 48.9519 39.8169 50.4502C39.8155 52.7279 40.1756 54.703 40.5335 56.1042ZM47.8092 51.3131C48.4763 50.8522 49.3864 51.0268 49.842 51.7023C50.2966 52.3783 50.1242 53.3004 49.4571 53.7603C48.7882 54.2212 47.879 54.0471 47.4235 53.3711C46.9693 52.6956 47.1408 51.7734 47.8092 51.3131Z" fill="#124C5F"/>
<path d="M38.5431 45.5884C37.8787 45.598 37.2459 45.5784 36.6423 45.531C36.4307 45.4777 36.2119 45.4444 35.9828 45.4562C35.9689 45.4571 35.9563 45.4617 35.9423 45.4626C26.7603 44.4065 24.2608 37.3728 13.5336 44.6722C10.2936 43.7082 6.43069 41.6356 3.50491 37.2128C2.91345 36.3235 1.72289 36.0906 0.847403 36.6895C-0.0325804 37.2871 -0.264842 38.4918 0.328866 39.3816C3.11195 43.5459 6.55132 45.9854 9.77868 47.4144C9.74087 47.4946 9.70126 47.5899 9.66164 47.6811C8.83433 48.9414 8.1866 50.6019 7.76529 52.8149C7.70633 53.1381 5.07943 70.1146 9.20522 70.1146C13.331 70.1146 14.464 57.2724 16.7677 55.6283C17.0922 55.6574 23.2125 62.1514 28.4402 61.3351C29.665 61.1427 31.3232 60.377 32.7051 59.5624L34.9665 68.7298C35.2203 69.7586 36.1282 70.4564 37.1464 70.4564C37.2576 70.4564 37.3706 70.4482 37.4835 70.4309C38.6318 70.2563 39.4587 69.2326 39.3979 68.0579L38.8109 56.6434C38.4157 55.1205 38.0169 52.9672 38.0151 50.4502C38.0156 48.9373 38.1628 47.2955 38.5431 45.5884Z" fill="#124C5F"/>
<path d="M58.6261 68.0083H58.058L56.8985 64.37H43.9085L42.749 68.0083H42.1801C41.7228 68.0083 41.351 68.3843 41.351 68.8484C41.351 69.3119 41.7228 69.688 42.1801 69.688H58.6261C59.0834 69.688 59.4552 69.3119 59.4552 68.8484C59.4552 68.3843 59.083 68.0083 58.6261 68.0083Z" fill="#124C5F"/>
</svg>
