<svg width="18" height="30" viewBox="0 0 18 30" fill="none" xmlns="http://www.w3.org/2000/svg">
<path d="M12.6319 7.36726C12.673 7.32103 12.8649 7.16997 13.6187 7.16997L16.0902 7.16905C16.8942 7.16905 17.5481 6.51628 17.5481 5.71382V1.40259C17.5481 0.601503 16.8952 -0.0512695 16.0925 -0.0526428L12.4214 -0.0585938C10.1556 -0.0585938 8.22948 0.687334 6.85121 2.09885C5.47913 3.50396 4.75376 5.46548 4.75376 7.77101V10.0962H1.94538C1.14135 10.0962 0.487305 10.749 0.487305 11.5515V16.1946C0.487305 16.997 1.14135 17.6498 1.94538 17.6498H4.75376V28.4862C4.75376 29.2887 5.4078 29.9415 6.21183 29.9415H11.0255C11.8295 29.9415 12.4835 29.2887 12.4835 28.4862V17.65H15.9164C16.7204 17.65 17.3742 16.997 17.3742 16.195L17.3761 11.5517C17.3761 11.0246 17.0887 10.5368 16.6259 10.2789C16.4115 10.1594 16.162 10.0962 15.9047 10.0962H12.4835V8.25922C12.4835 7.66046 12.5643 7.44371 12.6319 7.36726Z" fill="#5B5B5B"/>
</svg>
