<svg width="78" height="77" viewBox="0 0 78 77" fill="none" xmlns="http://www.w3.org/2000/svg">
<path d="M52.5393 37.0278C57.4341 42.8091 65.753 34.1921 65.7294 28.1599C71.2597 18.3938 60.4463 12.0556 54.4494 21.1275C48.4289 24.1671 45.5736 35.6629 52.5393 37.0278ZM53.461 35.4001C46.962 34.7295 51.3313 24.7359 55.3829 22.5159L55.4966 21.9355C60.6856 13.9108 68.7103 19.0997 63.5213 27.1244L63.4075 27.7049C63.6586 32.5762 57.1949 40.9539 52.8805 35.2864L53.461 35.4001Z" fill="#4AB1D2" fill-opacity="0.52"/>
<path d="M34.7485 26.3086C39.6433 32.0899 47.9622 23.4729 47.9387 17.4407C53.4689 7.67456 42.6555 1.33638 36.5449 10.9888C30.5244 14.0284 27.6691 25.5242 34.6348 26.8891L34.7485 26.3086ZM35.6702 24.6809C29.1712 24.0103 33.5405 14.0166 37.5921 11.7967L37.7058 11.2162C42.8948 3.19155 50.9195 8.38054 45.7305 16.4052L45.6168 16.9857C45.8678 21.857 39.4041 30.2347 35.0897 24.5672L35.6702 24.6809Z" fill="#4AB1D2" fill-opacity="0.52"/>
<path d="M58.5402 58.6975C63.082 63.2041 70.4909 59.231 69.3064 52.9712C73.107 45.88 62.8741 39.6556 57.9126 46.5193C52.1196 48.398 52.2687 56.8659 57.9597 58.5838L58.5402 58.6975ZM59.4619 57.0699L58.8814 56.9561C54.3513 55.4657 54.4415 48.853 58.8461 47.9078L59.5403 47.441C62.9996 42.0912 71.0243 47.2802 67.565 52.63L67.4513 53.2105C68.3965 57.615 62.8428 61.3489 59.3481 57.6503L59.4619 57.0699Z" fill="#4AB1D2" fill-opacity="0.52"/>
<path d="M13.1924 31.729C17.7342 36.2355 25.1431 32.2624 23.9586 26.0027C27.7592 18.9114 17.5263 12.687 12.5648 19.5507C6.77185 21.4295 6.92089 29.8973 12.6119 31.6152L13.1924 31.729ZM14.1141 30.1013L13.5336 29.9875C9.00354 28.4971 9.09375 21.8844 13.4983 20.9392L14.1925 20.4724C17.6519 15.1227 25.6765 20.3116 22.2172 25.6614L22.1035 26.2419C23.0487 30.6465 17.495 34.3803 14.0003 30.6818L14.1141 30.1013Z" fill="#4AB1D2" fill-opacity="0.52"/>
<path d="M49.5936 55.1362C58.9244 38.2789 30.9007 21.3353 20.5227 37.3847C0.59435 43.7267 10.3958 58.3053 22.723 66.1457C35.1641 73.4055 53.3863 75.7706 49.5936 55.1362ZM47.8522 54.795L47.7384 55.3755C51.2919 74.1547 34.8111 72.1308 23.531 65.0985C12.2509 58.0661 2.1083 45.2289 20.762 39.2398L21.4562 38.7731C31.0262 23.7709 56.2612 39.5654 47.8522 54.795Z" fill="#4AB1D2" fill-opacity="0.52"/>
</svg>
